Coordinates
version=1
nRows=9
nColumns=24
inDegrees=yes

Units are S.I. units (second, meters, Newtons, ...)
Angles are in degrees.

endheader
time	pelvis_tilt	pelvis_list	pelvis_rotation	pelvis_tx	pelvis_ty	pelvis_tz	hip_flexion_r	hip_adduction_r	hip_rotation_r	knee_angle_r	ankle_angle_r	subtalar_angle_r	mtp_angle_r	hip_flexion_l	hip_adduction_l	hip_rotation_l	knee_angle_l	ankle_angle_l	subtalar_angle_l	mtp_angle_l	lumbar_extension	lumbar_bending	lumbar_rotation
      1.31300000	     -2.05682008	      4.57161546	     -2.40802393	      0.18028358	      0.90574210	      0.35907008	     17.27964672	     -8.05522693	     -9.52613103	    -72.96989416	     -4.61398321	      4.79079025	     10.28220559	     12.91623520	      8.22779400	     -6.51800558	    -18.98035436	      9.84070967	     -5.97588167	      2.39799480	     -5.07088043	     -7.51952816	      3.08565842
      1.31716667	     -2.10840014	      4.47708474	     -2.19354860	      0.18535830	      0.90657054	      0.35864929	     17.96780084	     -7.92854400	     -9.60688720	    -72.77801430	     -3.84659182	      4.94423220	     10.16990882	     12.37071107	      8.22916278	     -6.19092386	    -18.50728022	      9.85826440	     -6.00800180	      2.39862928	     -5.06031252	     -7.39532547	      2.78473584
      1.32133333	     -2.14441517	      4.38193198	     -1.97345814	      0.19042541	      0.90741782	      0.35823104	     18.62111397	     -7.79911806	     -9.68235950	    -72.50976455	     -3.11419962	      5.07851468	     10.02109959	     11.79999442	      8.22830854	     -5.85040347	    -18.01158992	      9.83117910	     -6.05831472	      2.39368275	     -5.06964540	     -7.27519253	      2.47441886
      1.32550000	     -2.17094903	      4.24894137	     -1.74686195	      0.19548678	      0.90827584	      0.35781789	     19.23491695	     -7.62190984	     -9.75381442	    -72.14611319	     -2.41331274	      5.28828037	      9.95360248	     11.23256417	      8.17535115	     -5.53715235	    -17.55551826	      9.90128805	     -6.02535523	      2.39165382	     -5.08835173	     -7.10480501	      2.26159135
      1.32966667	     -2.17010160	      4.12537634	     -1.51466486	      0.20054392	      0.90916898	      0.35738648	     19.79995180	     -7.46092865	     -9.82263461	    -71.71034130	     -1.74134716	      5.49121376	      9.87579798	     10.61894197	      8.13670288	     -5.19098085	    -17.05541406	      9.90117099	     -6.05058287	      2.38371603	     -5.14349285	     -6.94974102	      1.96382228
      1.33383333	     -2.15980040	      3.98781076	     -1.27836024	      0.20559353	      0.91006589	      0.35695489	     20.33216151	     -7.28278805	     -9.88789841	    -71.19446463	     -1.10973423	      5.68237452	      9.81130730	      9.99621590	      8.07635601	     -4.85017553	    -16.55695520	      9.90689948	     -6.06493766	      2.37432614	     -5.20743687	     -6.77066852	      1.69894574
      1.33800000	     -2.14776600	      3.82961217	     -1.03347936	      0.21060907	      0.91095303	      0.35654686	     20.84002781	     -7.07239206	     -9.94848042	    -70.59796444	     -0.49349506	      5.81973597	      9.77536342	      9.38882333	      7.98074947	     -4.53154896	    -16.08948406	      9.88828801	     -6.02830861	      2.36677217	     -5.28626073	     -6.57976797	      1.49609929
      1.34216667	     -2.09349871	      3.71552244	     -0.80364624	      0.21566697	      0.91187331	      0.35608626	     21.29124752	     -6.93315396	     -9.99673652	    -69.95053423	      0.06010619	      6.01620761	      9.66146934	      8.67900006	      7.95151538	     -4.12699802	    -15.49556030	      9.82227161	     -6.18389278	      2.33931078	     -5.38565745	     -6.42553794	      1.09328870
      1.34633333	     -2.02448261	      3.54964116	     -0.56624632	      0.22070110	      0.91280584	      0.35566759	     21.69168190	     -6.72397984	    -10.04887220	    -69.20200757	      0.57624803	      6.19540812	      9.59939313	      7.99048212	      7.84040041	     -3.80669954	    -14.98582863	      9.85007970	     -6.16723076	      2.32288100	     -5.51227925	     -6.21645082	      0.87616114
